# xmcd
#
# Track frame offsets:
#	150
#	15703
#	28951
#	46379
#	63386
#	86057
#	93983
#	108363
#	126872
#	143400
#	159718
#	175894
#
# Disc length: 2695 seconds
#
# Revision: 1
# Processed by: cddbd v1.5.2PL0 Copyright (c) Steve Scherf et al.
# Submitted via: audiograbber 1.83.01
#
DISCID=9d0a850c
DTITLE=Gölä - Urchig
DYEAR=2017
DGENRE=Folk-Rock
TTITLE0=Indianer
TTITLE1=Keni Träne meh
TTITLE2=Büetzer
TTITLE3=Ohni di
TTITLE4=I hätt no viu blöder ta
TTITLE5=Vatter
TTITLE6=Uf u dervo
TTITLE7=Hingedri
TTITLE8=Schwan
TTITLE9=Grosspère
TTITLE10=Flügu
TTITLE11=Ziitt zum danke
EXTD=
EXTT0=
EXTT1=
EXTT2=
EXTT3=
EXTT4=
EXTT5=
EXTT6=
EXTT7=
EXTT8=
EXTT9=
EXTT10=
EXTT11=
PLAYORDER=
